<mxfile host="app.diagrams.net" agent="Mozilla/5.0 (X11; Linux x86_64; rv:143.0) Gecko/20100101 Firefox/143.0" version="28.2.7">
  <diagram name="Page-1" id="_SQuh-XGYHgeCQICRN7Q">
    <mxGraphModel dx="1188" dy="602" grid="1" gridSize="10" guides="1" tooltips="1" connect="1" arrows="1" fold="1" page="1" pageScale="1" pageWidth="827" pageHeight="1169" math="0" shadow="0">
      <root>
        <mxCell id="0" />
        <mxCell id="1" parent="0" />
        <mxCell id="F5qAZqvVFA0wClbNd6Lw-28" value="" style="rounded=1;whiteSpace=wrap;html=1;fillColor=none;dashed=1;arcSize=2;" vertex="1" parent="1">
          <mxGeometry x="470" y="230" width="100" height="270" as="geometry" />
        </mxCell>
        <mxCell id="F5qAZqvVFA0wClbNd6Lw-26" value="" style="rounded=1;whiteSpace=wrap;html=1;fillColor=none;dashed=1;arcSize=2;" vertex="1" parent="1">
          <mxGeometry x="350" y="220" width="350" height="310" as="geometry" />
        </mxCell>
        <mxCell id="F5qAZqvVFA0wClbNd6Lw-2" value="" style="sketch=0;points=[[0,0,0],[0.25,0,0],[0.5,0,0],[0.75,0,0],[1,0,0],[0,1,0],[0.25,1,0],[0.5,1,0],[0.75,1,0],[1,1,0],[0,0.25,0],[0,0.5,0],[0,0.75,0],[1,0.25,0],[1,0.5,0],[1,0.75,0]];outlineConnect=0;fontColor=#232F3E;fillColor=#ED7100;strokeColor=#ffffff;dashed=0;verticalLabelPosition=bottom;verticalAlign=top;align=center;html=1;fontSize=12;fontStyle=0;aspect=fixed;shape=mxgraph.aws4.resourceIcon;resIcon=mxgraph.aws4.fargate;" vertex="1" parent="1">
          <mxGeometry x="480" y="240" width="80" height="80" as="geometry" />
        </mxCell>
        <mxCell id="F5qAZqvVFA0wClbNd6Lw-3" value="" style="sketch=0;points=[[0,0,0],[0.25,0,0],[0.5,0,0],[0.75,0,0],[1,0,0],[0,1,0],[0.25,1,0],[0.5,1,0],[0.75,1,0],[1,1,0],[0,0.25,0],[0,0.5,0],[0,0.75,0],[1,0.25,0],[1,0.5,0],[1,0.75,0]];outlineConnect=0;fontColor=#232F3E;fillColor=#7AA116;strokeColor=#ffffff;dashed=0;verticalLabelPosition=bottom;verticalAlign=top;align=center;html=1;fontSize=12;fontStyle=0;aspect=fixed;shape=mxgraph.aws4.resourceIcon;resIcon=mxgraph.aws4.efs_standard;" vertex="1" parent="1">
          <mxGeometry x="600" y="240" width="80" height="80" as="geometry" />
        </mxCell>
        <mxCell id="F5qAZqvVFA0wClbNd6Lw-4" value="" style="points=[];aspect=fixed;html=1;align=center;shadow=0;dashed=0;fillColor=#FF6A00;strokeColor=none;shape=mxgraph.alibaba_cloud.nlb_network_load_balancer_02;" vertex="1" parent="1">
          <mxGeometry x="370" y="250" width="60" height="60" as="geometry" />
        </mxCell>
        <mxCell id="F5qAZqvVFA0wClbNd6Lw-15" style="edgeStyle=orthogonalEdgeStyle;rounded=0;orthogonalLoop=1;jettySize=auto;html=1;exitX=1;exitY=0.75;exitDx=0;exitDy=0;exitPerimeter=0;" edge="1" parent="1" source="F5qAZqvVFA0wClbNd6Lw-5" target="F5qAZqvVFA0wClbNd6Lw-2">
          <mxGeometry relative="1" as="geometry" />
        </mxCell>
        <mxCell id="F5qAZqvVFA0wClbNd6Lw-5" value="" style="sketch=0;points=[[0,0,0],[0.25,0,0],[0.5,0,0],[0.75,0,0],[1,0,0],[0,1,0],[0.25,1,0],[0.5,1,0],[0.75,1,0],[1,1,0],[0,0.25,0],[0,0.5,0],[0,0.75,0],[1,0.25,0],[1,0.5,0],[1,0.75,0]];outlineConnect=0;fontColor=#232F3E;fillColor=#7AA116;strokeColor=#ffffff;dashed=0;verticalLabelPosition=bottom;verticalAlign=top;align=center;html=1;fontSize=12;fontStyle=0;aspect=fixed;shape=mxgraph.aws4.resourceIcon;resIcon=mxgraph.aws4.s3;" vertex="1" parent="1">
          <mxGeometry x="480" y="80" width="80" height="80" as="geometry" />
        </mxCell>
        <mxCell id="F5qAZqvVFA0wClbNd6Lw-11" style="edgeStyle=orthogonalEdgeStyle;rounded=0;orthogonalLoop=1;jettySize=auto;html=1;exitX=1;exitY=0.5;exitDx=0;exitDy=0;exitPerimeter=0;" edge="1" parent="1" source="F5qAZqvVFA0wClbNd6Lw-6" target="F5qAZqvVFA0wClbNd6Lw-4">
          <mxGeometry relative="1" as="geometry" />
        </mxCell>
        <mxCell id="F5qAZqvVFA0wClbNd6Lw-6" value="" style="sketch=0;points=[[0,0,0],[0.25,0,0],[0.5,0,0],[0.75,0,0],[1,0,0],[0,1,0],[0.25,1,0],[0.5,1,0],[0.75,1,0],[1,1,0],[0,0.25,0],[0,0.5,0],[0,0.75,0],[1,0.25,0],[1,0.5,0],[1,0.75,0]];outlineConnect=0;fontColor=#232F3E;fillColor=#8C4FFF;strokeColor=#ffffff;dashed=0;verticalLabelPosition=bottom;verticalAlign=top;align=center;html=1;fontSize=12;fontStyle=0;aspect=fixed;shape=mxgraph.aws4.resourceIcon;resIcon=mxgraph.aws4.route_53;" vertex="1" parent="1">
          <mxGeometry x="220" y="240" width="80" height="80" as="geometry" />
        </mxCell>
        <mxCell id="F5qAZqvVFA0wClbNd6Lw-7" value="" style="endArrow=classic;html=1;rounded=0;entryX=0;entryY=0.5;entryDx=0;entryDy=0;entryPerimeter=0;" edge="1" parent="1" target="F5qAZqvVFA0wClbNd6Lw-6">
          <mxGeometry width="50" height="50" relative="1" as="geometry">
            <mxPoint x="90" y="280" as="sourcePoint" />
            <mxPoint x="200" y="280" as="targetPoint" />
          </mxGeometry>
        </mxCell>
        <mxCell id="F5qAZqvVFA0wClbNd6Lw-8" value="" style="sketch=0;outlineConnect=0;fontColor=#232F3E;gradientColor=none;fillColor=#232F3D;strokeColor=none;dashed=0;verticalLabelPosition=bottom;verticalAlign=top;align=center;html=1;fontSize=12;fontStyle=0;aspect=fixed;pointerEvents=1;shape=mxgraph.aws4.user;" vertex="1" parent="1">
          <mxGeometry x="30" y="240" width="40" height="40" as="geometry" />
        </mxCell>
        <mxCell id="F5qAZqvVFA0wClbNd6Lw-9" value="" style="sketch=0;outlineConnect=0;fontColor=#232F3E;gradientColor=none;fillColor=#232F3D;strokeColor=none;dashed=0;verticalLabelPosition=bottom;verticalAlign=top;align=center;html=1;fontSize=12;fontStyle=0;aspect=fixed;pointerEvents=1;shape=mxgraph.aws4.user;" vertex="1" parent="1">
          <mxGeometry x="60" y="290" width="40" height="40" as="geometry" />
        </mxCell>
        <mxCell id="F5qAZqvVFA0wClbNd6Lw-10" value="" style="sketch=0;outlineConnect=0;fontColor=#232F3E;gradientColor=none;fillColor=#232F3D;strokeColor=none;dashed=0;verticalLabelPosition=bottom;verticalAlign=top;align=center;html=1;fontSize=12;fontStyle=0;aspect=fixed;pointerEvents=1;shape=mxgraph.aws4.user;" vertex="1" parent="1">
          <mxGeometry x="70" y="220" width="40" height="40" as="geometry" />
        </mxCell>
        <mxCell id="F5qAZqvVFA0wClbNd6Lw-12" style="edgeStyle=orthogonalEdgeStyle;rounded=0;orthogonalLoop=1;jettySize=auto;html=1;entryX=0;entryY=0.5;entryDx=0;entryDy=0;entryPerimeter=0;" edge="1" parent="1" source="F5qAZqvVFA0wClbNd6Lw-4" target="F5qAZqvVFA0wClbNd6Lw-2">
          <mxGeometry relative="1" as="geometry" />
        </mxCell>
        <mxCell id="F5qAZqvVFA0wClbNd6Lw-13" style="edgeStyle=orthogonalEdgeStyle;rounded=0;orthogonalLoop=1;jettySize=auto;html=1;exitX=1;exitY=0.25;exitDx=0;exitDy=0;exitPerimeter=0;entryX=0;entryY=0.25;entryDx=0;entryDy=0;entryPerimeter=0;" edge="1" parent="1" source="F5qAZqvVFA0wClbNd6Lw-2" target="F5qAZqvVFA0wClbNd6Lw-3">
          <mxGeometry relative="1" as="geometry" />
        </mxCell>
        <mxCell id="F5qAZqvVFA0wClbNd6Lw-14" style="edgeStyle=orthogonalEdgeStyle;rounded=0;orthogonalLoop=1;jettySize=auto;html=1;exitX=0;exitY=0.75;exitDx=0;exitDy=0;exitPerimeter=0;entryX=1;entryY=0.75;entryDx=0;entryDy=0;entryPerimeter=0;" edge="1" parent="1" source="F5qAZqvVFA0wClbNd6Lw-3" target="F5qAZqvVFA0wClbNd6Lw-2">
          <mxGeometry relative="1" as="geometry" />
        </mxCell>
        <mxCell id="F5qAZqvVFA0wClbNd6Lw-16" value="" style="sketch=0;outlineConnect=0;fontColor=#232F3E;gradientColor=none;fillColor=#232F3D;strokeColor=none;dashed=0;verticalLabelPosition=bottom;verticalAlign=top;align=center;html=1;fontSize=12;fontStyle=0;aspect=fixed;pointerEvents=1;shape=mxgraph.aws4.user;" vertex="1" parent="1">
          <mxGeometry x="10" y="290" width="40" height="40" as="geometry" />
        </mxCell>
        <mxCell id="F5qAZqvVFA0wClbNd6Lw-17" value="&lt;i&gt;Player connection&lt;/i&gt;s" style="text;html=1;whiteSpace=wrap;strokeColor=none;fillColor=none;align=center;verticalAlign=middle;rounded=0;" vertex="1" parent="1">
          <mxGeometry x="120" y="245" width="80" height="30" as="geometry" />
        </mxCell>
        <mxCell id="F5qAZqvVFA0wClbNd6Lw-18" value="&lt;span&gt;Public NLB&lt;/span&gt;" style="text;html=1;whiteSpace=wrap;strokeColor=none;fillColor=none;align=center;verticalAlign=middle;rounded=0;fontStyle=0" vertex="1" parent="1">
          <mxGeometry x="360" y="310" width="80" height="30" as="geometry" />
        </mxCell>
        <mxCell id="F5qAZqvVFA0wClbNd6Lw-19" value="&lt;div&gt;Server&lt;/div&gt;&lt;div&gt;container&lt;/div&gt;" style="text;html=1;whiteSpace=wrap;strokeColor=none;fillColor=none;align=center;verticalAlign=middle;rounded=0;fontStyle=0" vertex="1" parent="1">
          <mxGeometry x="480" y="320" width="80" height="30" as="geometry" />
        </mxCell>
        <mxCell id="F5qAZqvVFA0wClbNd6Lw-20" value="&lt;div&gt;&lt;span&gt;EFS mount&lt;/span&gt;&lt;/div&gt;&lt;div&gt;&lt;span&gt;for world files&lt;/span&gt;&lt;/div&gt;" style="text;html=1;whiteSpace=wrap;strokeColor=none;fillColor=none;align=center;verticalAlign=middle;rounded=0;fontStyle=0" vertex="1" parent="1">
          <mxGeometry x="600" y="320" width="80" height="30" as="geometry" />
        </mxCell>
        <mxCell id="F5qAZqvVFA0wClbNd6Lw-21" value="&lt;div&gt;&lt;i&gt;Initial backup download&lt;/i&gt;&lt;/div&gt;" style="text;html=1;whiteSpace=wrap;strokeColor=none;fillColor=none;align=center;verticalAlign=middle;rounded=0;" vertex="1" parent="1">
          <mxGeometry x="580" y="160" width="80" height="30" as="geometry" />
        </mxCell>
        <mxCell id="F5qAZqvVFA0wClbNd6Lw-23" value="&lt;div&gt;&lt;span&gt;DNS&amp;nbsp;record&lt;/span&gt;&lt;/div&gt;" style="text;html=1;whiteSpace=wrap;strokeColor=none;fillColor=none;align=center;verticalAlign=middle;rounded=0;fontStyle=0" vertex="1" parent="1">
          <mxGeometry x="220" y="320" width="80" height="30" as="geometry" />
        </mxCell>
        <mxCell id="F5qAZqvVFA0wClbNd6Lw-24" value="" style="points=[[0,0,0],[0.25,0,0],[0.5,0,0],[0.75,0,0],[1,0,0],[0,1,0],[0.25,1,0],[0.5,1,0],[0.75,1,0],[1,1,0],[0,0.25,0],[0,0.5,0],[0,0.75,0],[1,0.25,0],[1,0.5,0],[1,0.75,0]];outlineConnect=0;fontColor=#232F3E;fillColor=#ED7100;strokeColor=#ffffff;dashed=0;verticalLabelPosition=bottom;verticalAlign=top;align=center;html=1;fontSize=12;fontStyle=0;aspect=fixed;shape=mxgraph.aws4.resourceIcon;resIcon=mxgraph.aws4.fargate;fillStyle=auto;" vertex="1" parent="1">
          <mxGeometry x="480" y="380" width="80" height="80" as="geometry" />
        </mxCell>
        <mxCell id="F5qAZqvVFA0wClbNd6Lw-25" value="&lt;div&gt;Backup script&lt;/div&gt;&lt;div&gt;runner&lt;/div&gt;" style="text;html=1;whiteSpace=wrap;strokeColor=none;fillColor=none;align=center;verticalAlign=middle;rounded=0;fontStyle=0" vertex="1" parent="1">
          <mxGeometry x="480" y="460" width="80" height="30" as="geometry" />
        </mxCell>
        <mxCell id="F5qAZqvVFA0wClbNd6Lw-27" value="Security group" style="text;html=1;whiteSpace=wrap;strokeColor=none;fillColor=none;align=center;verticalAlign=middle;rounded=0;fontStyle=2" vertex="1" parent="1">
          <mxGeometry x="340" y="200" width="100" height="20" as="geometry" />
        </mxCell>
        <mxCell id="F5qAZqvVFA0wClbNd6Lw-29" value="ECS service" style="text;html=1;whiteSpace=wrap;strokeColor=none;fillColor=none;align=center;verticalAlign=middle;rounded=0;fontStyle=2" vertex="1" parent="1">
          <mxGeometry x="470" y="500" width="100" height="20" as="geometry" />
        </mxCell>
        <mxCell id="F5qAZqvVFA0wClbNd6Lw-31" style="edgeStyle=orthogonalEdgeStyle;rounded=0;orthogonalLoop=1;jettySize=auto;html=1;exitX=1;exitY=0.75;exitDx=0;exitDy=0;exitPerimeter=0;entryX=1;entryY=0.5;entryDx=0;entryDy=0;entryPerimeter=0;" edge="1" parent="1" source="F5qAZqvVFA0wClbNd6Lw-24" target="F5qAZqvVFA0wClbNd6Lw-5">
          <mxGeometry relative="1" as="geometry">
            <Array as="points">
              <mxPoint x="720" y="440" />
              <mxPoint x="720" y="120" />
            </Array>
          </mxGeometry>
        </mxCell>
        <mxCell id="F5qAZqvVFA0wClbNd6Lw-32" style="edgeStyle=orthogonalEdgeStyle;rounded=0;orthogonalLoop=1;jettySize=auto;html=1;exitX=1;exitY=0.5;exitDx=0;exitDy=0;exitPerimeter=0;entryX=1;entryY=0.25;entryDx=0;entryDy=0;entryPerimeter=0;" edge="1" parent="1" source="F5qAZqvVFA0wClbNd6Lw-3" target="F5qAZqvVFA0wClbNd6Lw-24">
          <mxGeometry relative="1" as="geometry">
            <Array as="points">
              <mxPoint x="690" y="280" />
              <mxPoint x="690" y="400" />
            </Array>
          </mxGeometry>
        </mxCell>
        <mxCell id="F5qAZqvVFA0wClbNd6Lw-33" value="RunTask request" style="text;html=1;whiteSpace=wrap;strokeColor=none;fillColor=none;align=center;verticalAlign=middle;rounded=0;fontStyle=2" vertex="1" parent="1">
          <mxGeometry x="200" y="420" width="140" height="30" as="geometry" />
        </mxCell>
        <mxCell id="F5qAZqvVFA0wClbNd6Lw-34" style="edgeStyle=orthogonalEdgeStyle;rounded=0;orthogonalLoop=1;jettySize=auto;html=1;entryX=0;entryY=0.5;entryDx=0;entryDy=0;entryPerimeter=0;" edge="1" parent="1" source="F5qAZqvVFA0wClbNd6Lw-36" target="F5qAZqvVFA0wClbNd6Lw-24">
          <mxGeometry relative="1" as="geometry">
            <mxPoint x="320" y="420" as="sourcePoint" />
            <mxPoint x="440" y="360" as="targetPoint" />
          </mxGeometry>
        </mxCell>
        <mxCell id="F5qAZqvVFA0wClbNd6Lw-35" value="Backup upload" style="text;html=1;whiteSpace=wrap;strokeColor=none;fillColor=none;align=center;verticalAlign=middle;rounded=0;fontStyle=2" vertex="1" parent="1">
          <mxGeometry x="580" y="440" width="100" height="30" as="geometry" />
        </mxCell>
        <mxCell id="F5qAZqvVFA0wClbNd6Lw-36" value="" style="sketch=0;outlineConnect=0;fontColor=#232F3E;gradientColor=none;fillColor=#232F3D;strokeColor=none;dashed=0;verticalLabelPosition=bottom;verticalAlign=top;align=center;html=1;fontSize=12;fontStyle=0;aspect=fixed;pointerEvents=1;shape=mxgraph.aws4.user;" vertex="1" parent="1">
          <mxGeometry x="160" y="400" width="40" height="40" as="geometry" />
        </mxCell>
        <mxCell id="F5qAZqvVFA0wClbNd6Lw-37" value="&lt;span&gt;Admin&lt;/span&gt;" style="text;html=1;whiteSpace=wrap;strokeColor=none;fillColor=none;align=center;verticalAlign=middle;rounded=0;fontStyle=0" vertex="1" parent="1">
          <mxGeometry x="140" y="440" width="80" height="30" as="geometry" />
        </mxCell>
        <mxCell id="F5qAZqvVFA0wClbNd6Lw-38" value="Zip world files" style="text;html=1;whiteSpace=wrap;strokeColor=none;fillColor=none;align=center;verticalAlign=middle;rounded=0;fontStyle=2" vertex="1" parent="1">
          <mxGeometry x="580" y="400" width="100" height="30" as="geometry" />
        </mxCell>
        <mxCell id="F5qAZqvVFA0wClbNd6Lw-40" value="Backup S3 bucket" style="text;html=1;whiteSpace=wrap;strokeColor=none;fillColor=none;align=center;verticalAlign=middle;rounded=0;fontStyle=0" vertex="1" parent="1">
          <mxGeometry x="480" y="160" width="80" height="30" as="geometry" />
        </mxCell>
      </root>
    </mxGraphModel>
  </diagram>
</mxfile>
